# Blender 4.2.1 LTS
# www.blender.org
mtllib MCgrassblock.mtl
o Cube
v 1.000000 1.000000 -1.000000
v 1.000000 -1.000000 -1.000000
v 1.000000 1.000000 1.000000
v 1.000000 -1.000000 1.000000
v -1.000000 1.000000 -1.000000
v -1.000000 -1.000000 -1.000000
v -1.000000 1.000000 1.000000
v -1.000000 -1.000000 1.000000
vn -0.0000 1.0000 -0.0000
vn -0.0000 -0.0000 1.0000
vn -1.0000 -0.0000 -0.0000
vn -0.0000 -1.0000 -0.0000
vn 1.0000 -0.0000 -0.0000
vn -0.0000 -0.0000 -1.0000
vt 0.250974 0.672229
vt 0.500974 0.672229
vt 0.500974 0.993047
vt 0.250974 0.993047
vt 0.751035 0.332709
vt 0.749949 0.666040
vt 0.502023 0.664603
vt 0.503110 0.331273
vt 0.996689 0.331896
vt 0.997608 0.665228
vt 0.750270 0.666441
vt 0.749350 0.333110
vt 0.250139 0.003984
vt 0.500139 0.003984
vt 0.500139 0.333892
vt 0.250139 0.333892
vt 0.500240 0.331597
vt 0.500240 0.667563
vt 0.250830 0.667564
vt 0.250830 0.331597
vt 0.792079 0.333450
vt 0.792079 0.667488
vt 0.542631 0.667488
vt 0.542631 0.333450
s 0
usemtl Material
f 1/1/1 5/2/1 7/3/1 3/4/1
f 4/5/2 3/6/2 7/7/2 8/8/2
f 8/9/3 7/10/3 5/11/3 6/12/3
f 6/13/4 2/14/4 4/15/4 8/16/4
f 2/17/5 1/18/5 3/19/5 4/20/5
f 6/21/6 5/22/6 1/23/6 2/24/6
