# Blender 4.2.1 LTS
# www.blender.org
mtllib MCwood.mtl
o Cube
v 1.000000 1.000000 -1.000000
v 1.000000 -1.000000 -1.000000
v 1.000000 1.000000 1.000000
v 1.000000 -1.000000 1.000000
v -1.000000 1.000000 -1.000000
v -1.000000 -1.000000 -1.000000
v -1.000000 1.000000 1.000000
v -1.000000 -1.000000 1.000000
vn -0.0000 1.0000 -0.0000
vn -0.0000 -0.0000 1.0000
vn -1.0000 -0.0000 -0.0000
vn -0.0000 -1.0000 -0.0000
vn 1.0000 -0.0000 -0.0000
vn -0.0000 -0.0000 -1.0000
vt 0.373853 0.500000
vt 0.500964 0.500000
vt 0.500964 0.750000
vt 0.373853 0.750000
vt 0.312874 0.502828
vt 0.312698 0.752998
vt 0.187698 0.752688
vt 0.187874 0.502518
vt 0.314475 0.500617
vt 0.312572 0.752287
vt 0.187586 0.748703
vt 0.189488 0.497034
vt 0.374567 0.498542
vt 0.500046 0.498542
vt 0.500046 0.748542
vt 0.374567 0.748542
vt 0.315541 0.499841
vt 0.315468 0.750277
vt 0.190468 0.750159
vt 0.190541 0.499723
vt 0.311958 0.500602
vt 0.311958 0.750483
vt 0.186958 0.750483
vt 0.186958 0.500602
s 0
usemtl Material
f 1/1/1 5/2/1 7/3/1 3/4/1
f 4/5/2 3/6/2 7/7/2 8/8/2
f 8/9/3 7/10/3 5/11/3 6/12/3
f 6/13/4 2/14/4 4/15/4 8/16/4
f 2/17/5 1/18/5 3/19/5 4/20/5
f 6/21/6 5/22/6 1/23/6 2/24/6
